<svg xmlns="http://www.w3.org/2000/svg" width="104" height="92" viewBox="0 0 104 92" fill="none">
    <path d="M84.1403 25.9065C88.6037 30.0449 91 34.6865 91 42.2107C91 55.4508 80.353 67.3177 64.87 73.1849L61.0003 67.9721C75.452 61.1478 78.2773 52.2921 79.404 46.7085C77.077 47.7602 74.0307 48.1271 71.045 47.885C63.2277 47.2533 57.0657 41.6508 57.0657 34.6865C57.0657 31.175 58.6636 27.8074 61.5079 25.3244C64.3522 22.8414 68.2099 21.4464 72.2323 21.4464C76.882 21.4464 81.328 23.3001 84.1403 25.9065ZM40.807 25.9065C45.2703 30.0449 47.6667 34.6865 47.6667 42.2107C47.6667 55.4508 37.0197 67.3177 21.5367 73.1849L17.667 67.9721C32.1187 61.1478 34.944 52.2921 36.0707 46.7085C33.7437 47.7602 30.6973 48.1271 27.7117 47.885C19.8943 47.2533 13.7323 41.6508 13.7323 34.6865C13.7323 31.175 15.3302 27.8074 18.1745 25.3244C21.0188 22.8414 24.8765 21.4464 28.899 21.4464C33.5487 21.4464 37.9947 23.3001 40.807 25.9065Z" fill="#FED104"/>
</svg>
