<svg xmlns="http://www.w3.org/2000/svg" width="104" height="91" viewBox="0 0 104 91" fill="none">
    <path d="M19.8597 69.1028C15.3963 64.9643 13 60.3227 13 52.7986C13 39.5585 23.647 27.6916 39.13 21.8243L42.9997 27.0372C28.548 33.8615 25.7227 42.7172 24.596 48.3007C26.923 47.2491 29.9693 46.8822 32.955 47.1243C40.7723 47.756 46.9343 53.3585 46.9343 60.3227C46.9343 63.8342 45.3364 67.2019 42.4921 69.6849C39.6478 72.1679 35.7901 73.5628 31.7677 73.5628C27.118 73.5628 22.672 71.7092 19.8597 69.1028ZM63.193 69.1028C58.7297 64.9643 56.3333 60.3227 56.3333 52.7986C56.3333 39.5585 66.9803 27.6916 82.4633 21.8243L86.333 27.0372C71.8813 33.8615 69.056 42.7172 67.9293 48.3007C70.2563 47.2491 73.3027 46.8822 76.2883 47.1243C84.1057 47.756 90.2677 53.3585 90.2677 60.3227C90.2677 63.8342 88.6698 67.2019 85.8255 69.6849C82.9812 72.1679 79.1235 73.5628 75.101 73.5628C70.4513 73.5628 66.0053 71.7092 63.193 69.1028Z" fill="#FED104"/>
</svg>
