<svg width="61" height="61" viewBox="0 0 61 61" fill="none" xmlns="http://www.w3.org/2000/svg">
    <circle cx="30.5" cy="30.5" r="30.5" fill="#D3F4FF"/>
    <circle cx="30.5" cy="30.5" r="22.5" fill="#00B4FF"/>
    <g clip-path="url(#clip0)">
        <path d="M30.5006 21C30.893 21.0179 31.166 21.2027 31.3821 21.5114C32.5895 23.2361 33.8003 24.9572 35.0104 26.6798C37.2146 29.8162 39.4229 32.9498 41.6147 36.0955C41.8068 36.3713 41.9927 36.7287 42.0009 37.0531C42.0194 37.7815 41.284 38.207 40.611 37.8926C39.7144 37.4736 38.8295 37.0266 37.9404 36.5904C35.5311 35.4086 33.1232 34.2218 30.7084 33.0522C30.5836 32.992 30.3764 33.0286 30.2406 33.0945C27.0307 34.6573 23.825 36.2309 20.6192 37.8023C20.5362 37.8431 20.4539 37.8854 20.3688 37.9191C19.9291 38.0931 19.4839 37.9807 19.2198 37.6311C18.9426 37.2644 18.9213 36.8153 19.2012 36.4013C19.6698 35.7095 20.1569 35.0319 20.6371 34.3486C23.6377 30.0769 26.6404 25.8053 29.6383 21.53C29.8633 21.2099 30.1377 21.0158 30.5006 21Z" fill="#ACE7FF"/>
    </g>
    <defs>
        <clipPath id="clip0">
            <rect width="23" height="17" fill="white" transform="translate(19 21)"/>
        </clipPath>
    </defs>
</svg>
