<svg width="261" height="261" viewBox="0 0 261 261" fill="none" xmlns="http://www.w3.org/2000/svg">
<circle cx="130.041" cy="129.959" r="99.7484" transform="rotate(-180 130.041 129.959)" stroke="#FED104" stroke-width="7"/>
<mask id="mask0_5_326" style="mask-type:alpha" maskUnits="userSpaceOnUse" x="0" y="0" width="261" height="261">
<circle cx="130.5" cy="130.5" r="123.5" transform="rotate(-180 130.5 130.5)" stroke="#FED104" stroke-width="14"/>
</mask>
<g mask="url(#mask0_5_326)">
<rect x="295" y="130" width="350.103" height="143.511" transform="rotate(-180 295 130)" fill="#FED104"/>
</g>
<path d="M83.16 155.28C81.24 155.28 79.2933 154.987 77.32 154.4C75.3467 153.813 73.48 152.933 71.72 151.76C70.0133 150.533 68.4933 148.987 67.16 147.12C65.8267 145.253 64.84 143.04 64.2 140.48L72.2 137.28C72.8933 140.107 74.1467 142.427 75.96 144.24C77.8267 146 80.2 146.88 83.08 146.88C84.52 146.88 85.88 146.64 87.16 146.16C88.44 145.627 89.5333 144.933 90.44 144.08C91.3467 143.173 92.0667 142.107 92.6 140.88C93.1333 139.653 93.4 138.293 93.4 136.8C93.4 135.307 93.1333 133.947 92.6 132.72C92.12 131.44 91.4267 130.347 90.52 129.44C89.6133 128.533 88.52 127.84 87.24 127.36C85.96 126.827 84.5733 126.56 83.08 126.56C81.32 126.56 79.72 126.96 78.28 127.76C76.84 128.507 75.64 129.493 74.68 130.72L65.88 126.8L69.16 99.28H99V107.36H76.6L74.6 121.6L75.08 121.76C76.2533 120.853 77.6133 120.08 79.16 119.44C80.7067 118.8 82.6 118.48 84.84 118.48C87.1333 118.48 89.32 118.933 91.4 119.84C93.5333 120.693 95.4 121.92 97 123.52C98.6 125.12 99.88 127.04 100.84 129.28C101.8 131.52 102.28 134 102.28 136.72C102.28 139.387 101.8 141.867 100.84 144.16C99.88 146.4 98.5467 148.347 96.84 150C95.1333 151.653 93.1067 152.96 90.76 153.92C88.4667 154.827 85.9333 155.28 83.16 155.28ZM128.556 155.28C125.783 155.28 123.223 154.853 120.876 154C118.53 153.147 116.503 152 114.796 150.56C113.09 149.067 111.756 147.333 110.796 145.36C109.836 143.333 109.356 141.147 109.356 138.8C109.356 137.2 109.57 135.733 109.996 134.4C110.476 133.013 111.116 131.76 111.916 130.64C112.716 129.52 113.623 128.533 114.636 127.68C115.703 126.773 116.823 126.027 117.996 125.44V124.96C116.13 123.733 114.53 122.133 113.196 120.16C111.863 118.187 111.196 115.947 111.196 113.44C111.196 111.253 111.623 109.227 112.476 107.36C113.33 105.44 114.53 103.787 116.076 102.4C117.623 101.013 119.463 99.9467 121.596 99.2C123.73 98.4 126.05 98 128.556 98C131.063 98 133.383 98.4 135.516 99.2C137.65 99.9467 139.49 101.013 141.036 102.4C142.583 103.787 143.783 105.44 144.636 107.36C145.49 109.227 145.916 111.253 145.916 113.44C145.916 115.947 145.25 118.187 143.916 120.16C142.583 122.133 140.983 123.733 139.116 124.96V125.44C140.29 126.027 141.383 126.773 142.396 127.68C143.463 128.533 144.396 129.52 145.196 130.64C145.996 131.76 146.61 133.013 147.036 134.4C147.516 135.733 147.756 137.2 147.756 138.8C147.756 141.147 147.276 143.333 146.316 145.36C145.356 147.333 144.023 149.067 142.316 150.56C140.61 152 138.583 153.147 136.236 154C133.89 154.853 131.33 155.28 128.556 155.28ZM128.556 121.44C130.956 121.44 132.956 120.773 134.556 119.44C136.21 118.053 137.036 116.187 137.036 113.84C137.036 111.44 136.21 109.573 134.556 108.24C132.956 106.907 130.956 106.24 128.556 106.24C126.156 106.24 124.13 106.907 122.476 108.24C120.876 109.573 120.076 111.44 120.076 113.84C120.076 116.187 120.876 118.053 122.476 119.44C124.13 120.773 126.156 121.44 128.556 121.44ZM128.556 146.88C129.996 146.88 131.33 146.667 132.556 146.24C133.783 145.813 134.85 145.227 135.756 144.48C136.716 143.733 137.436 142.827 137.916 141.76C138.45 140.64 138.716 139.44 138.716 138.16C138.716 136.88 138.45 135.707 137.916 134.64C137.383 133.52 136.663 132.587 135.756 131.84C134.85 131.093 133.783 130.507 132.556 130.08C131.33 129.653 129.996 129.44 128.556 129.44C127.116 129.44 125.783 129.653 124.556 130.08C123.33 130.507 122.263 131.093 121.356 131.84C120.45 132.587 119.73 133.52 119.196 134.64C118.663 135.707 118.396 136.88 118.396 138.16C118.396 139.44 118.636 140.64 119.116 141.76C119.65 142.827 120.37 143.733 121.276 144.48C122.236 145.227 123.33 145.813 124.556 146.24C125.783 146.667 127.116 146.88 128.556 146.88ZM173.322 155.28C170.549 155.28 167.989 154.853 165.642 154C163.295 153.147 161.269 152 159.562 150.56C157.855 149.067 156.522 147.333 155.562 145.36C154.602 143.333 154.122 141.147 154.122 138.8C154.122 137.2 154.335 135.733 154.762 134.4C155.242 133.013 155.882 131.76 156.682 130.64C157.482 129.52 158.389 128.533 159.402 127.68C160.469 126.773 161.589 126.027 162.762 125.44V124.96C160.895 123.733 159.295 122.133 157.962 120.16C156.629 118.187 155.962 115.947 155.962 113.44C155.962 111.253 156.389 109.227 157.242 107.36C158.095 105.44 159.295 103.787 160.842 102.4C162.389 101.013 164.229 99.9467 166.362 99.2C168.495 98.4 170.815 98 173.322 98C175.829 98 178.149 98.4 180.282 99.2C182.415 99.9467 184.255 101.013 185.802 102.4C187.349 103.787 188.549 105.44 189.402 107.36C190.255 109.227 190.682 111.253 190.682 113.44C190.682 115.947 190.015 118.187 188.682 120.16C187.349 122.133 185.749 123.733 183.882 124.96V125.44C185.055 126.027 186.149 126.773 187.162 127.68C188.229 128.533 189.162 129.52 189.962 130.64C190.762 131.76 191.375 133.013 191.802 134.4C192.282 135.733 192.522 137.2 192.522 138.8C192.522 141.147 192.042 143.333 191.082 145.36C190.122 147.333 188.789 149.067 187.082 150.56C185.375 152 183.349 153.147 181.002 154C178.655 154.853 176.095 155.28 173.322 155.28ZM173.322 121.44C175.722 121.44 177.722 120.773 179.322 119.44C180.975 118.053 181.802 116.187 181.802 113.84C181.802 111.44 180.975 109.573 179.322 108.24C177.722 106.907 175.722 106.24 173.322 106.24C170.922 106.24 168.895 106.907 167.242 108.24C165.642 109.573 164.842 111.44 164.842 113.84C164.842 116.187 165.642 118.053 167.242 119.44C168.895 120.773 170.922 121.44 173.322 121.44ZM173.322 146.88C174.762 146.88 176.095 146.667 177.322 146.24C178.549 145.813 179.615 145.227 180.522 144.48C181.482 143.733 182.202 142.827 182.682 141.76C183.215 140.64 183.482 139.44 183.482 138.16C183.482 136.88 183.215 135.707 182.682 134.64C182.149 133.52 181.429 132.587 180.522 131.84C179.615 131.093 178.549 130.507 177.322 130.08C176.095 129.653 174.762 129.44 173.322 129.44C171.882 129.44 170.549 129.653 169.322 130.08C168.095 130.507 167.029 131.093 166.122 131.84C165.215 132.587 164.495 133.52 163.962 134.64C163.429 135.707 163.162 136.88 163.162 138.16C163.162 139.44 163.402 140.64 163.882 141.76C164.415 142.827 165.135 143.733 166.042 144.48C167.002 145.227 168.095 145.813 169.322 146.24C170.549 146.667 171.882 146.88 173.322 146.88Z" fill="#FED104"/>
</svg>
