<svg xmlns="http://www.w3.org/2000/svg" width="202" height="197" viewBox="0 0 202 197" fill="none">
    <path d="M98.5527 46.473V48.473H100.553H106.103C112.162 48.473 116.934 53.229 116.934 58.9833C116.934 64.7336 112.126 69.4936 106.103 69.4936H100.553H98.5527V71.4936V96.0436H75.2828V92.6316C75.2828 84.5775 68.5878 78.1213 60.4523 78.1213C52.3167 78.1213 45.6217 84.5775 45.6217 92.6316V96.0436H22.392V71.4936V69.4936H20.392H14.8415C8.81922 69.4936 4.01099 64.7336 4.01099 58.9833C4.01099 53.2365 8.81684 48.47 14.8473 48.4338H20.392H22.392V46.4338V21.8838H45.6619V25.2958C45.6619 33.3499 52.357 39.806 60.4925 39.806C68.628 39.806 75.323 33.3499 75.323 25.2958V21.8838H98.5527V46.473Z" fill="#FDDF7F" stroke="black" stroke-width="4"/>
    <path d="M153.444 96.0439H151.444V98.0439V103.456C151.444 109.241 146.639 113.966 140.613 113.966C134.591 113.966 129.782 109.206 129.782 103.456V98.0439V96.0439H127.782H102.553V73.4547H106.103C114.239 73.4547 120.934 66.9986 120.934 58.9444C120.934 50.8903 114.239 44.4342 106.103 44.4342H102.553V21.8842H127.782H129.782V19.8842V14.4722C129.782 8.72189 134.591 3.96191 140.613 3.96191C146.635 3.96191 151.444 8.72189 151.444 14.4722V19.8842V21.8842H153.444H178.673V44.4734H175.123C166.987 44.4734 160.292 50.9295 160.292 58.9837C160.292 67.0378 166.987 73.4939 175.123 73.4939H178.673V96.0439H153.444Z" fill="#ECF4F7" stroke="black" stroke-width="4"/>
    <path d="M47.662 100.044H49.662V98.0436V92.6316C49.662 86.8461 54.4661 82.1213 60.4925 82.1213C66.5148 82.1213 71.3231 86.8813 71.3231 92.6316V98.0436V100.044H73.3231H98.5528V122.594H95.0023C86.8667 122.594 80.1717 129.05 80.1717 137.104C80.1717 145.158 86.8667 151.614 95.0023 151.614H98.5528V174.164H73.2828H71.2828V176.164V181.576C71.2828 187.326 66.4746 192.086 60.4523 192.086C54.43 192.086 49.6218 187.326 49.6218 181.576V176.164V174.164H47.6218H22.3921V151.614H25.9426C34.0781 151.614 40.7731 145.158 40.7731 137.104C40.7731 129.05 34.0781 122.594 25.9426 122.594H22.3921V100.044H47.662Z" fill="#59AEE4" stroke="black" stroke-width="4"/>
    <path d="M102.553 149.614V147.614H100.553H95.0022C88.9438 147.614 84.1716 142.858 84.1716 137.103C84.1716 131.353 88.9799 126.593 95.0022 126.593H100.553H102.553V124.593V100.043H125.782V103.455C125.782 111.509 132.477 117.965 140.613 117.965C148.748 117.965 155.443 111.509 155.443 103.455V100.043H178.673V124.593V126.593H180.673H186.224C192.246 126.593 197.054 131.353 197.054 137.103C197.054 142.854 192.246 147.614 186.224 147.614H180.673H178.673V149.614V174.164H155.443V170.752C155.443 162.698 148.748 156.242 140.613 156.242C132.477 156.242 125.782 162.698 125.782 170.752V174.164H102.553V149.614Z" fill="#EF835E" stroke="black" stroke-width="4"/>
    <path d="M20.3922 27.0595C19.266 27.0595 18.3811 26.1967 18.3811 25.0986V19.8827C18.3811 18.7847 19.266 17.9219 20.3922 17.9219H26.9482C28.0744 17.9219 28.9593 18.7847 28.9593 19.8827C28.9593 20.9808 28.0744 21.8436 26.9482 21.8436H22.4032V25.0986C22.4032 26.1967 21.5184 27.0595 20.3922 27.0595Z" fill="#1C1D21"/>
    <path d="M100.553 100.003H73.3231C72.197 100.003 71.3121 99.1406 71.3121 98.0425V92.6306C71.3121 86.8264 66.4453 82.0811 60.4926 82.0811C54.5399 82.0811 49.6731 86.8264 49.6731 92.6306V98.0425C49.6731 99.1406 48.7883 100.003 47.6621 100.003H20.3922C19.266 100.003 18.3811 99.1406 18.3811 98.0425V86.2774C18.3811 85.1793 19.266 84.3165 20.3922 84.3165C21.5184 84.3165 22.4032 85.1793 22.4032 86.2774V96.0817H45.6108V92.6306C45.6108 84.6695 52.2875 78.1594 60.4524 78.1594C68.6173 78.1594 75.294 84.6695 75.294 92.6306V96.0817H98.5418V71.4925C98.5418 70.3944 99.4267 69.5317 100.553 69.5317H106.103C112.056 69.5317 116.923 64.7864 116.923 58.9822C116.923 53.1781 112.056 48.4328 106.103 48.4328H100.553C99.4267 48.4328 98.5418 47.57 98.5418 46.472V21.8436H75.3342V25.2947C75.3342 33.2558 68.6575 39.7658 60.4926 39.7658C52.3277 39.7658 45.651 33.2558 45.651 25.2947V21.8436H36.3197C35.1935 21.8436 34.3087 20.9808 34.3087 19.8827C34.3087 18.7847 35.1935 17.9219 36.3197 17.9219H47.6621C48.7883 17.9219 49.6731 18.7847 49.6731 19.8827V25.2947C49.6731 31.0988 54.5399 35.8441 60.4926 35.8441C66.4453 35.8441 71.3121 31.0988 71.3121 25.2947V19.8827C71.3121 18.7847 72.197 17.9219 73.3231 17.9219H100.553C101.679 17.9219 102.564 18.7847 102.564 19.8827V44.4719H106.103C114.268 44.4719 120.945 50.9819 120.945 58.943C120.945 66.9041 114.268 73.4141 106.103 73.4141H102.564V98.0425C102.564 99.1406 101.679 100.003 100.553 100.003Z" fill="#1C1D21"/>
    <path d="M20.3921 73.4543H14.8416C6.67671 73.4543 0 66.9443 0 58.9832C0 51.0221 6.67671 44.5121 14.8416 44.5121H18.381V34.0019C18.381 32.9038 19.2659 32.041 20.3921 32.041C21.5183 32.041 22.4032 32.9038 22.4032 34.0019V46.4729C22.4032 47.571 21.5183 48.4338 20.3921 48.4338H14.8416C8.88887 48.4338 4.02211 53.1791 4.02211 58.9832C4.02211 64.7873 8.88887 69.5326 14.8416 69.5326H20.3921C21.5183 69.5326 22.4032 70.3954 22.4032 71.4935C22.4032 72.5523 21.5183 73.4543 20.3921 73.4543Z" fill="#1C1D21"/>
    <path d="M180.714 178.164H174.158C173.031 178.164 172.146 177.301 172.146 176.203C172.146 175.105 173.031 174.242 174.158 174.242H178.703V170.987C178.703 169.889 179.587 169.027 180.714 169.027C181.84 169.027 182.725 169.889 182.725 170.987V176.203C182.725 177.262 181.8 178.164 180.714 178.164Z" fill="#1C1D21"/>
    <path d="M164.826 178.164H153.484C152.358 178.164 151.473 177.301 151.473 176.203V170.791C151.473 164.987 146.606 160.242 140.653 160.242C134.7 160.242 129.834 164.987 129.834 170.791V176.203C129.834 177.301 128.949 178.164 127.823 178.164H100.553C99.4266 178.164 98.5417 177.301 98.5417 176.203V151.614H95.0022C86.8373 151.614 80.1606 145.104 80.1606 137.143C80.1606 129.182 86.8373 122.672 95.0022 122.672H98.5417V98.0434C98.5417 96.9453 99.4266 96.0825 100.553 96.0825H127.782C128.909 96.0825 129.794 96.9453 129.794 98.0434V103.455C129.794 109.259 134.66 114.005 140.613 114.005C146.566 114.005 151.432 109.259 151.432 103.455V98.0434C151.432 96.9453 152.317 96.0825 153.444 96.0825H180.673C181.799 96.0825 182.684 96.9453 182.684 98.0434V109.809C182.684 110.907 181.799 111.769 180.673 111.769C179.547 111.769 178.662 110.907 178.662 109.809V100.004H155.455V103.455C155.455 111.416 148.778 117.926 140.613 117.926C132.448 117.926 125.771 111.416 125.771 103.455V100.004H102.564V124.593C102.564 125.691 101.679 126.554 100.553 126.554H95.0022C89.0495 126.554 84.1828 131.3 84.1828 137.104C84.1828 142.908 89.0495 147.653 95.0022 147.653H100.553C101.679 147.653 102.564 148.516 102.564 149.614V174.203H125.771V170.752C125.771 162.791 132.448 156.281 140.613 156.281C148.778 156.281 155.455 162.791 155.455 170.752V174.203H164.786C165.912 174.203 166.797 175.066 166.797 176.164C166.837 177.262 165.912 178.164 164.826 178.164Z" fill="#1C1D21"/>
    <path d="M180.713 164.046C179.587 164.046 178.702 163.183 178.702 162.085V149.614C178.702 148.516 179.587 147.653 180.713 147.653H186.264C192.217 147.653 197.083 142.908 197.083 137.104C197.083 131.3 192.217 126.555 186.264 126.555H180.713C179.587 126.555 178.702 125.692 178.702 124.594C178.702 123.496 179.587 122.633 180.713 122.633H186.264C194.429 122.633 201.106 129.143 201.106 137.104C201.106 145.065 194.429 151.575 186.264 151.575H182.725V162.085C182.725 163.183 181.799 164.046 180.713 164.046Z" fill="#1C1D21"/>
    <path d="M140.613 117.926C132.448 117.926 125.771 111.416 125.771 103.455V100.004H100.553C99.4266 100.004 98.5417 99.1412 98.5417 98.0431V71.4931C98.5417 70.395 99.4266 69.5322 100.553 69.5322H106.103C112.056 69.5322 116.923 64.787 116.923 58.9828C116.923 53.1787 112.056 48.4334 106.103 48.4334H100.553C99.4266 48.4334 98.5417 47.5706 98.5417 46.4726V19.8833C98.5417 18.7853 99.4266 17.9225 100.553 17.9225H125.771V14.4714C125.771 6.51029 132.448 0.000244141 140.613 0.000244141C148.778 0.000244141 155.455 6.51029 155.455 14.4714V17.9225H180.673C181.799 17.9225 182.684 18.7853 182.684 19.8833V46.4333C182.684 47.5314 181.799 48.3942 180.673 48.3942H175.123C169.17 48.3942 164.303 53.1395 164.303 58.9436C164.303 64.7478 169.17 69.493 175.123 69.493H180.673C181.799 69.493 182.684 70.3558 182.684 71.4539V98.0431C182.684 99.1412 181.799 100.004 180.673 100.004H155.455V103.455C155.455 111.455 148.818 117.926 140.613 117.926ZM102.564 96.0823H127.783C128.909 96.0823 129.794 96.945 129.794 98.0431V103.455C129.794 109.259 134.66 114.005 140.613 114.005C146.566 114.005 151.433 109.259 151.433 103.455V98.0431C151.433 96.945 152.317 96.0823 153.444 96.0823H178.662V73.454H175.123C166.958 73.454 160.281 66.9439 160.281 58.9828C160.281 51.0218 166.958 44.5117 175.123 44.5117H178.662V21.8442H153.444C152.317 21.8442 151.433 20.9814 151.433 19.8833V14.4714C151.433 8.66723 146.566 3.92196 140.613 3.92196C134.66 3.92196 129.794 8.66723 129.794 14.4714V19.8833C129.794 20.9814 128.909 21.8442 127.783 21.8442H102.564V44.4725H106.103C114.268 44.4725 120.945 50.9825 120.945 58.9436C120.945 66.9047 114.268 73.4147 106.103 73.4147H102.564V96.0823Z" fill="#1C1D21"/>
    <path d="M60.4926 196.086C52.3277 196.086 45.651 189.576 45.651 181.615V178.163H20.3922C19.266 178.163 18.3811 177.301 18.3811 176.203V149.653C18.3811 148.554 19.266 147.692 20.3922 147.692H25.9427C31.8954 147.692 36.7621 142.946 36.7621 137.142C36.7621 131.338 31.8954 126.593 25.9427 126.593H20.3922C19.266 126.593 18.3811 125.73 18.3811 124.632V98.0428C18.3811 96.9447 19.266 96.0819 20.3922 96.0819H45.6108V92.6308C45.6108 84.6697 52.2875 78.1597 60.4524 78.1597C68.6173 78.1597 75.294 84.6697 75.294 92.6308V96.0819H100.553C101.679 96.0819 102.564 96.9447 102.564 98.0428V124.593C102.564 125.691 101.679 126.554 100.553 126.554H95.0023C89.0496 126.554 84.1828 131.299 84.1828 137.103C84.1828 142.907 89.0496 147.652 95.0023 147.652H100.553C101.679 147.652 102.564 148.515 102.564 149.613V176.163C102.564 177.261 101.679 178.124 100.553 178.124H75.3342V181.575C75.3342 189.576 68.6575 196.086 60.4926 196.086ZM22.4032 174.242H47.6218C48.748 174.242 49.6329 175.104 49.6329 176.203V181.615C49.6329 187.419 54.4997 192.164 60.4524 192.164C66.4051 192.164 71.2719 187.419 71.2719 181.615V176.203C71.2719 175.104 72.1567 174.242 73.2829 174.242H98.5418V151.613H95.0023C86.8374 151.613 80.1607 145.103 80.1607 137.142C80.1607 129.181 86.8374 122.671 95.0023 122.671H98.5418V100.004H73.3231C72.1969 100.004 71.3121 99.1408 71.3121 98.0428V92.6308C71.3121 86.8267 66.4453 82.0814 60.4926 82.0814C54.5399 82.0814 49.6731 86.8267 49.6731 92.6308V98.0428C49.6731 99.1408 48.7883 100.004 47.6621 100.004H22.4032V122.632H25.9427C34.1076 122.632 40.7843 129.142 40.7843 137.103C40.7843 145.064 34.1076 151.574 25.9427 151.574H22.4032V174.242Z" fill="#1C1D21"/>
</svg>
