<svg xmlns="http://www.w3.org/2000/svg" width="197" height="205" viewBox="0 0 197 205" fill="none">
    <path d="M78.2664 17.1387C82.0155 17.1387 85.0548 14.0937 85.0548 10.3376C85.0548 6.58154 82.0155 3.53662 78.2664 3.53662C74.5173 3.53662 71.478 6.58154 71.478 10.3376C71.478 14.0937 74.5173 17.1387 78.2664 17.1387Z" fill="#59AEE4"/>
    <path d="M129.417 131.049L128.752 132.083L138.605 181.407L66.1813 202.199L65.322 199.433L59.8199 181.683H31.6233L20.7057 147.158L4.02661 142.588L18.2249 109.113L18.0357 108.117C18.0033 107.954 17.9763 107.797 17.9493 107.646V107.575C17.2226 103.625 16.8607 99.6152 16.8683 95.5978V95.2513C16.9115 84.4676 19.6583 73.8676 24.8565 64.4247C27.9175 58.8911 31.7909 53.8495 36.3471 49.4689C39.6463 46.2987 43.284 43.5022 47.1944 41.1301C51.076 38.7748 55.2096 36.864 59.5173 35.4337C62.3682 34.4924 65.2861 33.7684 68.246 33.2678C71.6236 32.6864 75.0446 32.3948 78.4718 32.396C97.9289 32.396 115.813 41.52 127.574 57.445C130.476 61.3916 132.908 65.6639 134.822 70.1752C138.197 78.0465 139.96 86.5167 140.005 95.0834V95.1376V95.5978C140.005 97.1248 139.951 98.6572 139.843 100.152C139.094 111.071 135.558 121.615 129.574 130.773C129.525 130.865 129.466 130.962 129.417 131.049Z" fill="#C6D0DC"/>
    <path d="M116.143 131.852L115.484 132.881L125.326 182.21L65.3004 199.434L59.7983 181.685H31.6233L20.7057 147.16L4.02661 142.589L18.2249 109.115L18.0357 108.119C18.0033 107.956 17.9763 107.799 17.9493 107.648V107.577C17.2226 103.626 16.8607 99.6169 16.8683 95.5996V95.2531C16.9115 84.4693 19.6583 73.8693 24.8565 64.4264C27.9175 58.8928 31.7909 53.8513 36.3471 49.4707C39.6463 46.3005 43.284 43.504 47.1944 41.1319C51.076 38.7765 55.2096 36.8657 59.5173 35.4355C62.3682 34.4942 65.2861 33.7701 68.246 33.2695C86.5086 34.1684 103.161 43.157 114.305 58.2427C117.234 62.1912 119.688 66.4713 121.618 70.9946C124.992 78.8663 126.754 87.3363 126.801 95.9028V95.957V96.4172C126.801 97.9496 126.742 99.482 126.639 100.977C125.889 111.894 122.353 122.436 116.37 131.592C116.262 131.679 116.197 131.76 116.143 131.852Z" fill="white"/>
    <path d="M188.361 24.2455C188.913 20.5303 186.354 17.0705 182.646 16.5179C178.937 15.9654 175.484 18.5292 174.932 22.2444C174.381 25.9596 176.94 29.4194 180.648 29.972C184.356 30.5246 187.81 27.9607 188.361 24.2455Z" fill="#F7C648"/>
    <path d="M78.2664 122.153C82.0155 122.153 85.0548 119.108 85.0548 115.352C85.0548 111.595 82.0155 108.551 78.2664 108.551C74.5173 108.551 71.478 111.595 71.478 115.352C71.478 119.108 74.5173 122.153 78.2664 122.153Z" fill="#59AEE4"/>
    <path d="M130.211 71.9771C135.337 66.8406 135.337 58.5129 130.211 53.3765C125.084 48.2401 116.771 48.24 111.645 53.3765C106.518 58.5129 106.518 66.8406 111.645 71.9771C116.771 77.1135 125.084 77.1135 130.211 71.9771Z" fill="white"/>
    <path d="M186.799 60.218C190.548 60.218 193.588 57.1731 193.588 53.417C193.588 49.6609 190.548 46.616 186.799 46.616C183.05 46.616 180.011 49.6609 180.011 53.417C180.011 57.1731 183.05 60.218 186.799 60.218Z" fill="white"/>
    <path d="M156.538 67.4305C156.927 64.3002 156.927 61.1336 156.538 58.0033L147.009 54.6136C146.433 52.6338 145.645 50.7221 144.658 48.9118L148.982 39.7716C147.053 37.2814 144.82 35.0438 142.334 33.1113L133.2 37.4594C131.393 36.4714 129.485 35.6817 127.509 35.104L124.147 25.5468C121.023 25.1569 117.862 25.1569 114.738 25.5468L111.354 35.0932C109.378 35.6743 107.469 36.4677 105.663 37.4594L96.5452 33.1276C94.0567 35.0585 91.8213 37.2962 89.8919 39.7878L94.2157 48.928C93.2295 50.7383 92.4413 52.65 91.8647 54.6298L82.3361 58.0195C81.9469 61.1498 81.9469 64.3164 82.3361 67.4467L91.8647 70.8364C92.4413 72.8162 93.2295 74.7279 94.2157 76.5382L89.8919 85.6784C91.8213 88.17 94.0567 90.4078 96.5452 92.3387L105.663 88.0068C107.47 88.9948 109.378 89.7846 111.354 90.3623L114.738 99.9086C117.862 100.298 121.023 100.298 124.147 99.9086L127.531 90.3623C129.5 89.7744 131.401 88.9757 133.2 87.9797L142.323 92.3116C144.809 90.3792 147.042 88.1416 148.971 85.6514L144.648 76.5111C145.634 74.7008 146.422 72.7891 146.999 70.8093L156.538 67.4305ZM120.537 75.6556C117.851 75.6556 115.225 74.8575 112.991 73.3623C110.757 71.8671 109.017 69.7419 107.989 67.2555C106.961 64.7691 106.692 62.0331 107.216 59.3935C107.74 56.7539 109.033 54.3293 110.933 52.4262C112.832 50.5232 115.252 49.2272 117.887 48.7022C120.522 48.1771 123.253 48.4466 125.735 49.4765C128.216 50.5064 130.338 52.2505 131.83 54.4882C133.322 56.726 134.119 59.3568 134.119 62.0481C134.119 65.6571 132.688 69.1182 130.141 71.6701C127.594 74.222 124.139 75.6556 120.537 75.6556Z" fill="#EF835E"/>
    <path d="M129.563 57.7274C130.671 59.6425 131.11 61.8735 130.81 64.0668C130.509 66.26 129.486 68.29 127.904 69.835C127.225 70.503 126.453 71.0685 125.612 71.5136C123.502 72.6333 121.061 72.954 118.734 72.4168C116.408 71.8797 114.352 70.5207 112.945 68.5888C111.537 66.6569 110.871 64.2815 111.07 61.8979C111.268 59.5143 112.317 57.282 114.024 55.6102C115.37 54.2997 117.057 53.395 118.892 52.9995C120.727 52.6041 122.637 52.7338 124.401 53.3739L126.628 47.2714C124.375 46.4379 121.966 46.11 119.572 46.3108C117.178 46.5115 114.858 47.2361 112.774 48.4333C110.69 49.6306 108.894 51.2713 107.512 53.2399C106.13 55.2084 105.196 57.4568 104.775 59.8263C104.355 62.1959 104.459 64.629 105.08 66.954C105.7 69.279 106.823 71.4392 108.368 73.2822C109.912 75.1253 111.842 76.6063 114.02 77.6209C116.199 78.6354 118.573 79.1587 120.975 79.1539H121.699C124.518 79.0267 127.257 78.1739 129.651 76.6776C132.045 75.1814 134.014 73.0922 135.368 70.6117C136.721 68.1312 137.414 65.343 137.379 62.5161C137.344 59.6893 136.582 56.9192 135.168 54.4731L129.563 57.7274Z" fill="black"/>
    <path d="M186.799 43.368C184.426 43.369 182.13 44.2135 180.32 45.7512C178.51 47.2889 177.303 49.4201 176.914 51.7656C176.525 54.1111 176.979 56.5189 178.195 58.5605C179.411 60.6022 181.311 62.1454 183.557 62.9155V74.644H158.062V81.1418H190.042V62.9101C192.288 62.1399 194.187 60.5968 195.404 58.5551C196.62 56.5135 197.074 54.1057 196.685 51.7602C196.296 49.4147 195.089 47.2835 193.279 45.7458C191.469 44.2081 189.173 43.3636 186.799 43.3625V43.368ZM186.799 56.97C186.098 56.97 185.413 56.7617 184.83 56.3714C184.247 55.9811 183.792 55.4263 183.524 54.7772C183.255 54.1282 183.185 53.4139 183.322 52.7249C183.459 52.0358 183.796 51.4029 184.292 50.9061C184.788 50.4094 185.42 50.0711 186.108 49.934C186.795 49.7969 187.508 49.8673 188.156 50.1361C188.804 50.405 189.358 50.8603 189.747 51.4444C190.137 52.0286 190.345 52.7153 190.345 53.4179C190.339 54.3567 189.963 55.2552 189.299 55.9175C188.635 56.5799 187.736 56.9524 186.799 56.9538V56.97Z" fill="black"/>
    <path d="M149.955 72.6562L159.846 69.2069L160.062 67.5121C160.487 64.2083 160.487 60.8634 160.062 57.5596L159.846 55.8702L149.955 52.4318C149.537 51.2341 149.044 50.0639 148.48 48.9284L152.998 39.6257L151.917 38.2774C151.339 37.541 150.728 36.8317 150.096 36.1386V26.2024H172.298C173.066 28.4545 174.607 30.3605 176.646 31.5811C178.686 32.8016 181.091 33.2575 183.435 32.8676C185.778 32.4776 187.907 31.2671 189.443 29.4516C190.979 27.6361 191.822 25.3334 191.822 22.9535C191.822 20.5735 190.979 18.2708 189.443 16.4553C187.907 14.6398 185.778 13.4293 183.435 13.0394C181.091 12.6494 178.686 13.1053 176.646 14.3259C174.607 15.5464 173.066 17.4524 172.298 19.7046H143.626V30.4205L143.377 30.231L133.908 34.6495C132.749 34.0921 131.555 33.6075 130.336 33.1983L126.817 23.5004L125.093 23.2892C124.801 23.2513 124.509 23.2242 124.212 23.1917V6.80104H87.8976C87.1297 4.5489 85.5889 2.64289 83.5496 1.42233C81.5102 0.201774 79.1048 -0.25411 76.7614 0.135847C74.418 0.525805 72.2887 1.73629 70.7528 3.5518C69.2168 5.36731 68.3738 7.67001 68.3738 10.0499C68.3738 12.4299 69.2168 14.7326 70.7528 16.5481C72.2887 18.3636 74.418 19.5741 76.7614 19.964C79.1048 20.354 81.5102 19.8981 83.5496 18.6776C85.5889 17.457 87.1297 15.551 87.8976 13.2988H117.726V23.0455C116.797 23.0943 115.867 23.1755 114.943 23.2892L113.219 23.5004L109.706 33.1983C108.484 33.6065 107.289 34.0912 106.128 34.6495L96.6587 30.231L95.2859 31.2815L94.4644 31.9258L93.5402 31.6876C88.7069 30.5432 83.757 29.9671 78.7906 29.9711C72.0403 29.9518 65.3306 31.0176 58.9173 33.1279C49.8357 36.1588 41.5434 41.1812 34.6445 47.8292C29.8848 52.4034 25.8399 57.6697 22.6459 63.451C17.2206 73.2899 14.3493 84.3367 14.2956 95.5771V95.9832C14.2832 100.081 14.645 104.172 15.3765 108.204L3.48607 136.367L0 144.608L19.2409 149.877L29.9694 183.817H56.777L63.2627 204.702L142.853 181.862L132.876 131.927C138.826 122.544 142.344 111.822 143.113 100.732C143.221 99.1726 143.28 97.5752 143.28 95.9832C143.28 95.8803 143.28 95.7775 143.28 95.6746C143.28 95.5717 143.28 95.5013 143.28 95.4147C143.28 95.2252 143.28 95.0411 143.28 94.8732L143.394 94.9273L144.766 93.8769C147.447 91.8423 149.86 89.4772 151.949 86.8376L153.03 85.4893L148.528 76.2029C149.078 75.052 149.555 73.8674 149.955 72.6562ZM181.784 19.3851C182.485 19.3862 183.17 19.5954 183.752 19.9864C184.334 20.3773 184.788 20.9325 185.055 21.5816C185.323 22.2308 185.392 22.9448 185.255 23.6335C185.118 24.3222 184.779 24.9546 184.283 25.4509C183.787 25.9471 183.156 26.2849 182.468 26.4215C181.78 26.5581 181.068 26.4875 180.42 26.2184C179.773 25.9494 179.219 25.4941 178.83 24.9101C178.441 24.3261 178.233 23.6395 178.233 22.9372C178.238 21.9946 178.617 21.0929 179.286 20.4299C179.955 19.767 180.859 19.397 181.8 19.4013L181.784 19.3851ZM78.4177 13.6021C77.7149 13.6031 77.0276 13.3953 76.4428 13.0048C75.8581 12.6143 75.4021 12.0587 75.1327 11.4084C74.8632 10.7582 74.7925 10.0424 74.9293 9.35181C75.0661 8.66121 75.4044 8.02683 75.9014 7.52897C76.3983 7.03111 77.0315 6.69218 77.7208 6.55508C78.4101 6.41798 79.1246 6.48889 79.7736 6.75883C80.4227 7.02876 80.9772 7.48558 81.367 8.07144C81.7568 8.6573 81.9642 9.34586 81.9632 10.0499C81.9617 10.9916 81.5877 11.8942 80.9231 12.5601C80.2585 13.2259 79.3575 13.6006 78.4177 13.6021ZM137.33 100.326C136.622 110.733 133.255 120.784 127.552 129.512L127.379 129.777L126.752 130.763L136.135 177.774L67.0947 197.576L62.8303 183.817H74.5262V178.029H34.1851L23.7809 145.128L7.87473 140.796L21.3866 108.887L21.2083 107.939C21.1758 107.791 21.1488 107.64 21.1272 107.484V107.43C20.4172 103.665 20.0554 99.8421 20.0463 96.0103V95.6854C20.0869 85.4065 22.7076 75.3029 27.667 66.3046C30.5815 61.0265 34.2729 56.2183 38.617 52.0419C41.7575 49.019 45.2234 46.3548 48.9509 44.0984C57.9337 38.6291 68.2466 35.744 78.7582 35.7595C82.1242 35.7577 85.484 36.0476 88.8002 36.6259L89.4001 36.7396C89.1245 37.0537 88.8596 37.3677 88.584 37.6926C88.4056 37.8984 88.2381 38.1096 88.076 38.3207L86.995 39.669L91.4972 48.9555C90.9323 50.091 90.4395 51.2611 90.0217 52.4589L80.1742 55.8702L79.958 57.5596C79.958 57.7275 79.9202 57.8899 79.904 58.0578H63.187C62.4191 55.8056 60.8783 53.8996 58.839 52.6791C56.7997 51.4585 54.3942 51.0026 52.0508 51.3926C49.7074 51.7825 47.5782 52.993 46.0422 54.8085C44.5062 56.6241 43.6632 58.9268 43.6632 61.3067C43.6632 63.6866 44.5062 65.9893 46.0422 67.8048C47.5782 69.6203 49.7074 70.8308 52.0508 71.2208C54.3942 71.6107 56.7997 71.1549 58.839 69.9343C60.8783 68.7137 62.4191 66.8077 63.187 64.5556H79.6932C79.7418 65.5465 79.8283 66.5374 79.9526 67.5121L80.1688 69.2069L90.0595 72.6562C90.4773 73.8557 90.9701 75.0276 91.535 76.165L88.2922 82.8198H75.1748V105.562C72.9268 106.331 71.0244 107.875 69.8061 109.918C68.5878 111.961 68.1328 114.371 68.522 116.719C68.9112 119.067 70.1195 121.2 71.9316 122.739C73.7437 124.278 76.0422 125.122 78.4177 125.122C80.7932 125.122 83.0916 124.278 84.9037 122.739C86.7158 121.2 87.9241 119.067 88.3133 116.719C88.7025 114.371 88.2475 111.961 87.0292 109.918C85.8109 107.875 83.9085 106.331 81.6605 105.562V89.3176H90.1622V89.193C91.7322 90.8878 93.4466 92.4423 95.2859 93.839L96.6587 94.8894L106.128 90.4709C107.29 91.0269 108.485 91.5116 109.706 91.9221L113.219 101.62L114.943 101.831C118.314 102.243 121.722 102.243 125.093 101.831L126.817 101.62L130.336 91.9221C131.555 91.5106 132.748 91.026 133.908 90.4709L136.07 91.4889L137.357 92.0846L137.405 92.8697C137.448 93.7361 137.475 94.6025 137.481 95.4688V95.5284V95.967C137.524 97.4398 137.448 98.9018 137.346 100.326H137.33ZM57.231 61.3392C57.2299 62.0415 57.0211 62.7277 56.6308 63.3111C56.2406 63.8946 55.6865 64.349 55.0385 64.6171C54.3906 64.8851 53.6779 64.9546 52.9905 64.817C52.3031 64.6793 51.6718 64.3406 51.1765 63.8436C50.6812 63.3466 50.3441 62.7136 50.2077 62.0248C50.0713 61.3359 50.1418 60.6219 50.4104 59.9732C50.6789 59.3244 51.1333 58.77 51.7163 58.3799C52.2992 57.9898 52.9845 57.7816 53.6855 57.7816C54.6263 57.7788 55.5298 58.1501 56.1976 58.814C56.8654 59.478 57.2429 60.3804 57.2472 61.3229L57.231 61.3392ZM81.947 115.076C81.9485 115.758 81.7543 116.425 81.3875 116.999C81.0207 117.573 80.4967 118.03 79.8782 118.313C79.2597 118.597 78.5727 118.697 77.8992 118.6C77.2257 118.504 76.5942 118.215 76.0799 117.769C75.5657 117.323 75.1905 116.737 74.9991 116.083C74.8077 115.429 74.8082 114.734 75.0005 114.08C75.1929 113.426 75.5689 112.842 76.0838 112.396C76.5986 111.95 77.2306 111.663 77.9042 111.567H78.8933C79.7393 111.681 80.5158 112.097 81.0799 112.738C81.644 113.38 81.9577 114.205 81.9632 115.06L81.947 115.076ZM142.605 88.435L141.459 87.8935L135.389 85.0561L133.768 84.298L132.503 84.9749C130.866 85.8551 129.139 86.5559 127.352 87.065L125.969 87.4603L122.683 96.5301C120.91 96.6601 119.131 96.6601 117.359 96.5301L114.067 87.4603L112.689 87.065C110.902 86.5568 109.175 85.856 107.538 84.9749L106.274 84.298L97.4208 88.4241C96.0678 87.2913 94.803 86.0568 93.6375 84.7312L97.8424 76.0675L97.1668 74.8221C96.274 73.2189 95.5581 71.5231 95.0319 69.7646L94.6319 68.4109L85.3844 65.162C85.3195 64.2903 85.2871 63.4185 85.2871 62.5521C85.2871 61.6857 85.3195 60.8085 85.3844 59.9367L94.6319 56.6878L95.0319 55.3287C95.5581 53.572 96.274 51.878 97.1668 50.2767L97.8586 49.0313L93.6537 40.3675C94.0374 39.9289 94.432 39.5012 94.8427 39.0788C95.6599 38.2315 96.5204 37.4272 97.4208 36.6692L106.274 40.8007L107.538 40.1239C108.16 39.7882 108.803 39.4741 109.457 39.1925C110.511 38.7327 111.594 38.3455 112.7 38.0338L114.078 37.6331L117.37 28.5686C119.142 28.4333 120.921 28.4333 122.693 28.5686L125.98 37.6331L127.363 38.0338C129.15 38.5429 130.877 39.2437 132.514 40.1239L133.779 40.8007L142.632 36.6692C143.985 37.8039 145.249 39.0403 146.415 40.3675L142.205 49.0313L142.896 50.2713C143.792 51.8705 144.506 53.5651 145.026 55.3233L145.431 56.6824L154.673 59.9313C154.744 60.8031 154.782 61.6749 154.782 62.5467C154.782 63.4185 154.744 64.2848 154.673 65.1566L145.431 68.4055L145.026 69.7592C144.506 71.5192 143.792 73.2156 142.896 74.8167L142.205 76.0567L146.415 84.7204C145.246 86.0482 143.978 87.2846 142.621 88.4187L142.605 88.435Z" fill="black"/>
</svg>
